<svg xmlns="http://www.w3.org/2000/svg" width="48.6" height="42.525" viewBox="0 0 48.6 42.525">
  <path id="bars-solid" d="M1.736,67.811H46.864A1.736,1.736,0,0,0,48.6,66.075V61.736A1.736,1.736,0,0,0,46.864,60H1.736A1.736,1.736,0,0,0,0,61.736v4.339A1.736,1.736,0,0,0,1.736,67.811Zm0,17.357H46.864A1.736,1.736,0,0,0,48.6,83.432V79.093a1.736,1.736,0,0,0-1.736-1.736H1.736A1.736,1.736,0,0,0,0,79.093v4.339A1.736,1.736,0,0,0,1.736,85.168Zm0,17.357H46.864a1.736,1.736,0,0,0,1.736-1.736V96.45a1.736,1.736,0,0,0-1.736-1.736H1.736A1.736,1.736,0,0,0,0,96.45v4.339A1.736,1.736,0,0,0,1.736,102.525Z" transform="translate(0 -60)" fill="#fff"/>
</svg>
