<svg xmlns="http://www.w3.org/2000/svg" width="49.22" height="49.208" viewBox="0 0 49.22 49.208">
  <path id="instagram-brands-solid" d="M24.54,43.813A12.616,12.616,0,1,0,37.157,56.429,12.6,12.6,0,0,0,24.54,43.813Zm0,20.819a8.2,8.2,0,1,1,8.2-8.2A8.217,8.217,0,0,1,24.54,64.632ZM40.616,43.3a2.943,2.943,0,1,1-2.943-2.943A2.936,2.936,0,0,1,40.616,43.3Zm8.356,2.987C48.785,42.341,47.885,38.85,45,35.973S38.628,32.2,34.686,32c-4.063-.231-16.24-.231-20.3,0-3.931.187-7.423,1.087-10.311,3.964S.3,42.33.1,46.272c-.231,4.063-.231,16.24,0,20.3.187,3.942,1.087,7.434,3.975,10.311s6.369,3.777,10.311,3.975c4.063.231,16.24.231,20.3,0,3.942-.187,7.434-1.087,10.311-3.975s3.777-6.369,3.975-10.311C49.2,62.512,49.2,50.346,48.972,46.283ZM43.723,70.934a8.3,8.3,0,0,1-4.678,4.678C35.806,76.9,28.12,76.6,24.54,76.6s-11.277.285-14.505-.988a8.3,8.3,0,0,1-4.678-4.678C4.073,67.7,4.369,60.009,4.369,56.429s-.285-11.277.988-14.505a8.3,8.3,0,0,1,4.678-4.678c3.239-1.285,10.925-.988,14.505-.988s11.277-.285,14.505.988a8.3,8.3,0,0,1,4.678,4.678c1.285,3.239.988,10.925.988,14.505S45.008,67.706,43.723,70.934Z" transform="translate(0.075 -31.825)" fill="#fff"/>
</svg>
