<svg xmlns="http://www.w3.org/2000/svg" viewBox="0 0 800 400">
  <defs>
    <pattern id="militaryPattern" x="0" y="0" width="800" height="400" patternUnits="userSpaceOnUse">
      <!-- Base layer -->
      <rect width="800" height="400" fill="#f0f0f0"/>
      
      <!-- Digital camo fragments -->
      <path d="M0 0 L320 0 L280 40 L0 40 Z" fill="#e6e6e6"/>
      <path d="M480 0 L800 0 L800 80 L600 80 Z" fill="#dedede"/>
      <path d="M0 120 L160 120 L240 160 L0 160 Z" fill="#e8e8e8"/>
      <path d="M400 200 L560 200 L480 240 L320 240 Z" fill="#e2e2e2"/>
      
      <!-- Tactical grid lines -->
      <circle cx="400" cy="200" r="140" fill="none" stroke="#d0d0d0" stroke-width="1" stroke-dasharray="4,8"/>
      <circle cx="400" cy="200" r="80" fill="none" stroke="#d0d0d0" stroke-width="1" stroke-dasharray="2,4"/>
      
      <!-- Compass points -->
      <path d="M400 40 L410 60 L400 56 L390 60 Z" fill="#ccc"/>
      <path d="M760 200 L740 210 L744 200 L740 190 Z" fill="#ccc"/>
      <path d="M400 360 L390 340 L400 344 L410 340 Z" fill="#ccc"/>
      <path d="M40 200 L60 190 L56 200 L60 210 Z" fill="#ccc"/>
      
      <!-- Tech elements - spread out -->
      <path d="M320 170 L340 170 L340 190 L320 190 Z" fill="none" stroke="#ccc" stroke-width="1.5"/>
      <path d="M460 170 L480 170 L480 190 L460 190 Z" fill="none" stroke="#ccc" stroke-width="1.5"/>
      <path d="M320 210 L340 210 L340 230 L320 230 Z" fill="none" stroke="#ccc" stroke-width="1.5"/>
      <path d="M460 210 L480 210 L480 230 L460 230 Z" fill="none" stroke="#ccc" stroke-width="1.5"/>
      
      <!-- Extended crosshair elements -->
      <line x1="0" y1="200" x2="240" y2="200" stroke="#d0d0d0" stroke-width="1"/>
      <line x1="560" y1="200" x2="800" y2="200" stroke="#d0d0d0" stroke-width="1"/>
      <line x1="400" y1="0" x2="400" y2="80" stroke="#d0d0d0" stroke-width="1"/>
      <line x1="400" y1="320" x2="400" y2="400" stroke="#d0d0d0" stroke-width="1"/>
      
      <!-- Corner brackets -->
      <path d="M0 0 L80 0 L80 4 L4 4 L4 80 L0 80 Z" fill="#ccc"/>
      <path d="M720 0 L800 0 L800 80 L796 80 L796 4 L720 4 Z" fill="#ccc"/>
      <path d="M0 320 L0 400 L80 400 L80 396 L4 396 L4 320 Z" fill="#ccc"/>
      <path d="M720 396 L720 400 L800 400 L800 320 L796 320 L796 396 Z" fill="#ccc"/>
      
      <!-- Diagonal tactical lines - spread wider -->
      <line x1="0" y1="0" x2="160" y2="160" stroke="#e6e6e6" stroke-width="2"/>
      <line x1="640" y1="240" x2="800" y2="400" stroke="#e6e6e6" stroke-width="2"/>
      <line x1="0" y1="400" x2="160" y2="240" stroke="#e6e6e6" stroke-width="2"/>
      <line x1="640" y1="160" x2="800" y2="0" stroke="#e6e6e6" stroke-width="2"/>
      
      <!-- Center focus element -->
      <circle cx="400" cy="200" r="6" fill="#ccc"/>
      <circle cx="400" cy="200" r="16" fill="none" stroke="#ccc" stroke-width="1"/>
      
      <!-- Additional wide-space elements -->
      <path d="M200 100 L280 100 L240 120 Z" fill="#e0e0e0"/>
      <path d="M520 100 L600 100 L560 120 Z" fill="#e0e0e0"/>
      <path d="M200 300 L280 300 L240 280 Z" fill="#e0e0e0"/>
      <path d="M520 300 L600 300 L560 280 Z" fill="#e0e0e0"/>
      
      <!-- Extra geometric elements to fill wide space -->
      <path d="M100 150 L120 170 L80 170 Z" fill="#e4e4e4"/>
      <path d="M700 150 L720 170 L680 170 Z" fill="#e4e4e4"/>
      <path d="M100 250 L120 230 L80 230 Z" fill="#e4e4e4"/>
      <path d="M700 250 L720 230 L680 230 Z" fill="#e4e4e4"/>
    </pattern>
  </defs>
  
  <!-- Apply the pattern -->
  <rect width="800" height="400" fill="url(#militaryPattern)"/>
</svg>
